{"title":"Sharkansas.Womens.Prison.Massacre.2015.DVDRip.x264-MenaceIISocie","uid":12724626,"size":826289884,"categoryP":"video","categoryS":"movies","magnet":"?xt=urn:btih:c3f1e25dfe71e2ca59e198deb8b49c6eef549aef&amp;dn=Sharkansas.Womens.Prison.Massacre.2015.DVDRip.x264-MenaceIISocie&amp;tr=udp%3A%2F%2Ftracker.leechers-paradise.org%3A6969&amp;tr=udp%3A%2F%2Fzer0day.ch%3A1337&amp;tr=udp%3A%2F%2Fopen.demonii.com%3A1337&amp;tr=udp%3A%2F%2Ftracker.coppersurfer.tk%3A6969&amp;tr=udp%3A%2F%2Fexodus.desync.com%3A6969","seeders":1,"leechers":0,"uploader":".BONE.","files":1,"time":1447031227,"description":"[center][img]http://img905.imageshack.us/img905/6227/Jv7IbW.png[/img]\r\n \r\nSharkansas.Womens.Prison.Massacre.2015.DVDRip.x264-MenaceIISociety\r\n  \nhttp://www.imdb.com/title/tt3403194/\r\n \r\nPLOT: When a fracking mishap accidentally rips apart the earthÆs crust, the resulting hole opens up a gaping underground waterway to a vast and mysterious ocean somewhere deep below. Instantly, giant prehistoric sharks begin wending their way upward toward a murky bog in the heart of the Arkansas Bayou. Unfortunately for a group of female prisoners on a work detail in the swamp, the deadly sharks attack without warning û pinning a hapless group of intended victims in a small deserted cabin in the heart of the wetlands. Death may be the only means of escape!\r\n \r\nSource: R3.DVD5.NTSC-MASTER [THANKS]\r\n \r\nGeneral\r\nComplete name                            : Sharkansas.Womens.Prison.Massacre.2015.DVDRip.x264-MenaceIISociety.mp4\r\nFormat                                   : MPEG-4\r\nFormat profile                           : Base Media\r\nCodec ID                                 : isom\r\nFile size                                : 788 MiB\r\nDuration                                 : 1h 20mn\r\nOverall bit rate mode                    : Variable\r\nOverall bit rate                         : 1 370 Kbps\r\nEncoded date                             : UTC 2015-11-08 22:53:26\r\nTagged date                              : UTC 2015-11-08 22:53:26\r\n \r\nVideo\r\nID                                       : 1\r\nFormat                                   : AVC\r\nFormat/Info                              : Advanced Video Codec\r\nFormat profile                           :   \r\nFormat settings, CABAC                   : Yes\r\nFormat settings, ReFrames                : 3 frames\r\nCodec ID                                 : avc1\r\nCodec ID/Info                            : Advanced Video Coding\r\nDuration                                 : 1h 20mn\r\nBit rate mode                            : Variable\r\nBit rate                                 : 1 007 Kbps\r\nMaximum bit rate                         : 40.0 Mbps\r\nWidth                                    : 720 pixels\r\nHeight                                   : 400 pixels\r\nDisplay aspect ratio                     : 16:9\r\nFrame rate mode                          : Constant\r\nFrame rate                               : 25.000 fps\r\nColor space                              : YUV\r\nChroma subsampling                       : 4:2:0\r\nBit depth                                : 8 bits\r\nScan type                                : Progressive\r\nBits/(Pixel*Frame)                       : 0.140\r\nStream size                              : 579 MiB (74%)\r\nWriting library                          : x264 core 148 r2638 7599210\r\n \r\nAudio\r\nID                                       : 2\r\nFormat                                   : AAC\r\nFormat/Info                              : Advanced Audio Codec\r\nFormat profile                           : LC\r\nCodec ID                                 : 40\r\nDuration                                 : 1h 20mn\r\nBit rate mode                            : Variable\r\nBit rate                                 : 353 Kbps\r\nMaximum bit rate                         : 389 Kbps\r\nChannel(s)                               : 6 channels\r\nChannel positions                        : Front: L C R, Side: L R, LFE\r\nSampling rate                            : 48.0 KHz\r\nCompression mode                         : Lossy\r\nStream size                              : 206 MiB (26%)\r\nLanguage                                 : English\r\nEncoded date                             : UTC 2015-11-08 22:46:20\r\nTagged date                              : UTC 2015-11-08 22:53:58\r\n \r\n[img]http://img903.imageshack.us/img903/3225/4OKNzs.jpg[/img]\r\n[img]http://img907.imageshack.us/img907/6482/Tu6sky.jpg[/img]\r\n[img]http://img911.imageshack.us/img911/5250/yueOy4.jpg[/img]\r\n[img]http://img908.imageshack.us/img908/6585/jr49KR.jpg[/img]\r\n \r\n[img]http://s17.postimg.org/r1iiyw8yn/Untitled_1.png[/img][/center]","torrent":{"xt":"urn:btih:c3f1e25dfe71e2ca59e198deb8b49c6eef549aef","amp;dn":"Sharkansas.Womens.Prison.Massacre.2015.DVDRip.x264-MenaceIISocie","amp;tr":["udp%3A%2F%2Ftracker.leechers-paradise.org%3A6969","udp%3A%2F%2Fzer0day.ch%3A1337","udp%3A%2F%2Fopen.demonii.com%3A1337","udp%3A%2F%2Ftracker.coppersurfer.tk%3A6969","udp%3A%2F%2Fexodus.desync.com%3A6969"],"infoHash":"c3f1e25dfe71e2ca59e198deb8b49c6eef549aef","infoHashBuffer":{"type":"Buffer","data":[195,241,226,93,254,113,226,202,89,225,152,222,184,180,156,110,239,84,154,239]},"announce":[],"urlList":[]}}